# xmcd CD database file
#
# Track frame offsets:
#	150
#	18452
#	36682
#	56034
#	84431
#	97499
#	118042
#	137500
#	154793
#	173289
#	189800
#	204980
#	221142
#	242566
#	266226
#	280194
#	299212
#	317740
#
# Disc length: 4707 seconds
#
# Revision: 8
# Processed by: cddbd v1.5.2PL0 Copyright (c) Steve Scherf et al.
# Submitted via: CDex 1.76
#
DISCID=13126112
DTITLE=ZZ Top - Eliminator (Collector's Edition)
DYEAR=2008
DGENRE=Blues Rock
TTITLE0=Gimme All Your Lovin (2008 Remastered LP Version)
TTITLE1=Got Me Under Pressure (2008 Remastered LP Version)
TTITLE2=Sharp Dressed Man (2008 Remastered LP Version)
TTITLE3=I Need You Tonight (2008 Remastered LP Version)
TTITLE4=I Got The Six (2008 Remastered LP Version)
TTITLE5=Legs (2008 Remastered Original Album Version)
TTITLE6=Thug (2008 Remastered LP Version)
TTITLE7=TV Dinners (2008 Remastered LP Version)
TTITLE8=Dirty Dog (2008 Remastered LP Version)
TTITLE9=If I Could Only Flag Her Down (2008 Remastered LP Version)
TTITLE10=Bad Girl (2008 Remastered LP Version)
TTITLE11=Legs (2008 Remastered Single Version)
TTITLE12=Gimme All Your Lovin (Live At Castle Donington Festival, Leicestershire, UK)
TTITLE13=Sharp Dressed Man (Live At Castle Donington Festival, Leicestershire, UK)
TTITLE14=I Got The Six (Live At The Marquee Club, London, UK)
TTITLE15=TV Dinners (Live At Castle Donington Festival, Leicestershire, UK)
TTITLE16=Got Me Under Pressure (Live At Castle Donington Festival, Leicestershire, UK)
TTITLE17=Legs (2008 Remastered Dance Mix)
EXTD=YEAR: 2008
EXTT0=
EXTT1=
EXTT2=
EXTT3=
EXTT4=
EXTT5=
EXTT6=
EXTT7=
EXTT8=
EXTT9=
EXTT10=
EXTT11=
EXTT12=
EXTT13=
EXTT14=
EXTT15=
EXTT16=
EXTT17=
PLAYORDER=
